<svg xmlns="http://www.w3.org/2000/svg" xmlns:xlink="http://www.w3.org/1999/xlink" id="Layer_1" x="0px" y="0px" viewBox="0 0 534.7 147.1" style="enable-background:new 0 0 534.7 147.1;" xml:space="preserve"><style type="text/css">	.st0{fill:#231F20;}	.st1{opacity:0.7;}	.st2{fill:#F8995C;}	.st3{fill:url(#SVGID_1_);}	.st4{fill:url(#SVGID_2_);}	.st5{fill:#2E3192;}	.st6{fill:#ED1C24;}</style><path class="st0" d="M523.6,34.5c6.2,0,11.2,5.1,11.2,11.3S529.7,57,523.5,57s-11.2-5.1-11.2-11.3C512.3,39.6,517.3,34.5,523.6,34.5 L523.6,34.5z M523.5,36.3c-5.3,0.3-9.3,4.9-9,10.1c0.3,4.9,4.2,8.8,9.1,9c5,0,9-4.2,9-9.6C532.8,40.7,528.7,36.4,523.5,36.3 L523.5,36.3z M521.4,52.4h-2V39.8c1.2-0.2,2.4-0.3,3.6-0.3c1.4-0.1,2.7,0.3,3.9,1c0.8,0.6,1.2,1.6,1.2,2.6c0,1.4-1.1,2.7-2.5,3v0.1 c1.1,0.2,1.8,1.2,2.1,3.1c0.1,1.1,0.4,2.1,0.8,3.1h-2.1c-0.5-1-0.8-2.1-0.8-3.2c-0.1-1.3-1.2-2.3-2.5-2.2c-0.1,0-0.2,0-0.2,0h-1.4 L521.4,52.4z M521.4,45.4h1.5c1.7,0,3.1-0.6,3.1-2.2c0-1.1-0.8-2.2-3.1-2.2c-0.5,0-1,0-1.5,0.1V45.4z"></path><g class="st1">	<path class="st2" d="M369.4,18.2c-2.6,0.9-9.1,0.5-13.1,0.4c-0.9-0.3-2.6-0.1-3.4-0.6C356,16.8,365.7,17.3,369.4,18.2L369.4,18.2z"></path>	<path class="st2" d="M345.4,18c-2.6,1.5-11.1,1.9-15.1,3.2c-29.1,8.7-46.8,19.4-56.3,30.5h-1.4c-1.4-1.3,0-2.6,1.4-3.7  c5.4-8.7,13.7-17.9,37.1-25.2C320.3,20.2,332.6,18.9,345.4,18L345.4,18z"></path>	<path class="st2" d="M388.6,20.5c-4.6,0.6-8.9-0.8-11.2-1.3c0.3-0.4-0.5-0.8,1.4-0.8C382.3,18.9,388.9,19.2,388.6,20.5z"></path>	<path class="st2" d="M236.9,21.9l0.9,0.6c-4.3,0.2-8.8-1.2-14.6-1.2c-1.1-0.7,2.3-0.6,3.4-1C231.4,20.1,235.7,20.9,236.9,21.9  L236.9,21.9z"></path>	<path class="st2" d="M218.6,21.4c0,0.3-0.6,0.6,0.6,0.7c-2.9,0.4-7.4,1.4-8.9,0.8C211.4,22.3,213.7,21.1,218.6,21.4z"></path>	<path class="st2" d="M401.4,22.8v0.6c-2.3,0.1-6.9-0.3-7.4-1.2v-0.8C396.5,21.3,399,21.8,401.4,22.8z"></path>	<path class="st2" d="M240.3,23.4c7.1,2.5,12,5.4,11.7,8.3l-3.4-0.2c-4-2.3-5.4-5.1-10.3-7.4C238.3,23.8,238.6,23.3,240.3,23.4  L240.3,23.4z"></path>	<path class="st2" d="M206,23.8c1.4,0.8-2,1.5-4,2c-1,0-1.9-0.1-2.9-0.4C200,24.8,202,23.5,206,23.8L206,23.8z"></path>	<path class="st2" d="M411.1,26.3l-1.4,0.4c-1.4-0.8-5.4-1.3-4.8-2.2C407,24.5,409.2,25.2,411.1,26.3z"></path>	<path class="st2" d="M420.8,29.7c0,0.8,0,1.6-2.9,2c-4.6-0.1-7.1-1.1-8.3-2c0-0.7,0-1.5,2.9-1.8C415.4,27.5,418.3,28.1,420.8,29.7z  "></path>	<path class="st2" d="M417.9,30.9c-2,0.3-2.9-0.5-4-0.8v-1.5C417.9,28.9,418.2,29.9,417.9,30.9L417.9,30.9z"></path>	<path class="st2" d="M230,44l18,9.3l-0.9,0.6c-10.9-2.3-15.7-6.3-26-9.3c-19.7-5-39.4-12.8-72.6-11.4l-0.8-0.5  c10.5-1.4,21.1-1.8,31.7-1.3C196.8,33.3,213.8,37.6,230,44L230,44z"></path>	<path class="st2" d="M257.4,35.3c8,5.2,7.4,10.9,11.1,16.3l-1.4,0.9c-2.9-0.2-2.6-0.9-3.4-1.4c-2.6-6.2-8.6-11.8-11.7-18  C256,33.2,255.7,34.5,257.4,35.3L257.4,35.3z"></path>	<path class="st2" d="M140.3,34.1c-2.6,1.2-8.3,1.9-13.7,2c-2.6-1.3,5.7-1.6,8.9-2.2C137.1,33.8,138.7,33.8,140.3,34.1L140.3,34.1z"></path>	<path class="st2" d="M409.1,39.4c4.9,1.8,7.4,3.8,8.3,6.1c-9.4,0.3-11.1-1.8-13.7-3.2c-4.6-1.7-12-3-20.6-2.9  c-35.4,1.1-64.5,7.4-88,13.2c-4,1-8.6,2.7-12.9,2.9c18.8-8,47.7-15.6,84.8-18.7C381.6,35.8,399.1,36.2,409.1,39.4L409.1,39.4z"></path>	<path class="st2" d="M242.6,39.7c-0.9,0.3-1.9,0.4-2.9,0.3c-1.1-1.1-6.6-2.7-2.9-3.5C238.9,37.4,241.7,38.5,242.6,39.7L242.6,39.7z  "></path>	<path class="st2" d="M119.2,37.7c-2.4,1.1-5.1,1.7-7.7,1.8l-4.9,0.2c-1.4-1.3,5.7-1.9,9.1-2.5C117.8,37.1,118.6,37.2,119.2,37.7  L119.2,37.7z"></path>	<path class="st2" d="M304.9,42.8c-0.5-0.1-0.9-0.2-1.4-0.2c1.1-1.3,5.7-2.2,10.3-2.7C311,41.4,308,42.4,304.9,42.8L304.9,42.8z"></path>	<path class="st2" d="M101.2,41c-0.6,1.4-5.7,1.9-10.3,2.5h-2C87.8,42.3,95.8,40.5,101.2,41z"></path>	<path class="st2" d="M246.6,42c5.7,4,10.9,8.1,13.1,12.6h-3.4c-4-4.2-8.9-8.7-11.7-12.6H246.6z"></path>	<path class="st2" d="M203.5,46.6c-2.6,0.6-6-0.3-8.9-0.5l-4.9-1.7C194.4,44.4,199,45.2,203.5,46.6L203.5,46.6z"></path>	<path class="st2" d="M298.6,45.4c-9.1,2.7-14.3,6.1-22.5,9c0.3-2.4,7.4-4.8,12.3-7.1c3.2-1.6,6.7-2.6,10.3-2.9L298.6,45.4  L298.6,45.4z"></path>	<path class="st2" d="M244.6,56.9l-0.9,0.2c-11.1-2.8-26-5.8-35.4-9.3C220.8,49.2,233,52.3,244.6,56.9z"></path>	<path class="st2" d="M237.7,58v0.5c-36-5.7-76-10.2-121.9-7.3c20-4,55.7-3.8,78-0.5C209.8,52.8,224.1,55.1,237.7,58L237.7,58z"></path>	<path class="st2" d="M471.4,59.5c16,8,22,17.9,20,27h-0.8c-4.6-5.7-6.9-11.7-13.7-17.1c-9.1-8-34.5-16.9-69.7-18.4  c-43.1-2-79.4,4-115.4,8.2c6.6-1.8,17.1-3.3,26.3-4.6c34.8-5,82.5-8.6,121.9-3.4C452.8,53.5,464.8,55.9,471.4,59.5z"></path>	<path class="st2" d="M327.4,50c0.9,0.8-2.9,1-4.9,1.2H318C318.3,50,324,50.2,327.4,50L327.4,50z"></path>	<path class="st2" d="M314.6,52.6c-10.6,1.6-17.4,3.4-26.9,5.2h-2c9.3-3.2,19-5.3,28.9-6.1V52.6z"></path>	<path class="st2" d="M108.9,52.6c-0.6,1.5-6,2.5-11.1,3c-2-0.4-1.4-1.2-0.6-1.7C101,52.7,105,52.2,108.9,52.6L108.9,52.6z"></path>	<path class="st2" d="M419.4,53.5c1.4,2.1,0.6,4.6-2,6.3c-2-0.1-5.4,0.3-6.3-0.5l-0.6-6.6C414,52.4,415.7,53.3,419.4,53.5z"></path>	<path class="st2" d="M92.4,56.9c0.8,1.3-3.2,2.6-8.3,3.2c-1.2,0.1-2.4-0.1-3.4-0.7C80.7,58.2,86.4,56.3,92.4,56.9z"></path>	<path class="st2" d="M349.4,58.1c-17.1,1.2-38.3,1.1-54.3,2.8l-0.6-0.2c17.4-3,35.2-4,52.8-3.2C348.3,57.6,348.3,58,349.4,58.1  L349.4,58.1z"></path>	<path class="st2" d="M225.5,62.4c-15.1-0.2-33.7-1.1-48.8,0.2c-37.1,2.4-62,10.4-73.4,19.1c-3.7,3.2-3.4,7.3-5.4,11  c-2.8,0.2-4.2-0.4-4.8-0.9c-4.3-6.3,0.6-13.3,11.7-18.9c16-7.3,44-13.6,80.2-13.6C198.3,59.9,214,60.4,225.5,62.4L225.5,62.4z"></path>	<path class="st2" d="M79.2,62c0.6,1.3-2.9,2.3-6,2.9c-4,0.3-4.3-0.3-5.4-1c1.4-1.1,3.4-2.5,8.9-2.7C79.5,61,78.1,61.8,79.2,62  L79.2,62z"></path>	<path class="st2" d="M396.8,68.8c20.6,6.9,27.1,15.3,31.4,24c-0.6,1,1.1,2.5-1.4,3.5c-7.1-7.3-11.4-15.3-28-21.7  C383.9,67,351.1,63.8,317.1,64l-32.9,0.9c3.1-3.1,20.3-2.4,30.9-3.3C348.8,60.5,377.6,62.5,396.8,68.8L396.8,68.8z"></path>	<path class="st2" d="M417.9,62.3c-1.1,1.3,0.3,3.7-5.4,4.6c-5.7-1.5-0.9-3.9-1.4-5.4C413.4,61.2,415.7,61.5,417.9,62.3z"></path>	<path class="st2" d="M72.4,64.3c-1.1,0-1.4-0.3-1.1-0.6c0.3-0.8,2.8-1.5,5.4-1.8C77.8,62.7,74.7,63.6,72.4,64.3z"></path>	<path class="st2" d="M234.3,63.9v0.5c-18,1.8-35.9,4.9-53.4,9.3c-0.6-0.8,3.4-1.8,4-2.9C198,67,212.9,62.3,234.3,63.9L234.3,63.9z"></path>	<path class="st2" d="M255.4,65.8c-4.3,4.6-10.6,9.2-12.8,13.8c-6.3-1.8-2.9-5.8-2.9-8.2c1.4-2.5,4-5.8,13.7-6.8L255.4,65.8  L255.4,65.8z"></path>	<path class="st2" d="M228.9,69.4c-23.4,9.4-41.7,20.2-42.6,32c-3.2-0.1-2.3-1.3-3.4-2.1c-3.1-9,8.3-18.2,24.6-26.1  c8.6-3.2,17.4-6.7,32.8-8.1C238.9,66.9,232.9,67.7,228.9,69.4L228.9,69.4z"></path>	<path class="st2" d="M280.9,68.8c30.3,11.2,26.9,26.8,29.4,39.7c-0.2,6.7-1,13.3-2.6,19.8c-0.9,0.4-1.4,0.8-2.3,1.2h-2  c-2.3-20.4,4.9-45.3-37.7-63.8l0.9-0.5C271.2,66.2,276.9,67.6,280.9,68.8L280.9,68.8z"></path>	<path class="st2" d="M316.6,73.3c0.3,1.3,5.4,3.3,0.6,4C310,73,298,68.7,281.5,66.5c2.9-0.9,10,0.1,14.6,0.5  C306.9,68.2,310.9,71,316.6,73.3L316.6,73.3z"></path>	<path class="st2" d="M414.5,70.7c-0.9,0.4-1.9,0.6-2.9,0.8c-1.2,0-2.4-0.4-3.4-1.2c0.9-0.9,0.9-2.1,4.9-2.4  C415.7,68.7,414,70,414.5,70.7z"></path>	<path class="st2" d="M412.5,69.9c-0.3,0.2,0.6,0.6-0.9,0.6c-0.6-0.2-1.1-0.6-0.6-1C412,69.4,412.8,69.6,412.5,69.9L412.5,69.9z"></path>	<path class="st2" d="M409.7,83.4c0.6,0.7-0.9,1.2-1.4,1.8c-3.7,0.3-3.1-0.9-4-1.2C404.2,83.3,409.7,81.2,409.7,83.4z"></path>	<path class="st2" d="M406.2,90.2c-0.8,0.2-1.7,0.2-2.6,0.1c-2-0.9-2.9-2,0.6-2.9l2-0.2C408.2,87.9,408.2,89.4,406.2,90.2  L406.2,90.2z"></path>	<path class="st2" d="M497.3,89.2c0.6,1.6,0,3.1-3.4,4.3c-5.4,0.1-6-1.3-7.4-2.4c0-1.2,1.4-2.2,4.9-3  C493.4,87.8,495.5,88.2,497.3,89.2L497.3,89.2z"></path>	<path class="st2" d="M493.3,91.9l-1.4,0.4c-3.4-0.5-2-1.9-1.4-2.8l2.3-0.5C495.1,89.8,494.2,91,493.3,91.9L493.3,91.9z"></path>	<path class="st2" d="M101.2,96.1c0.9,1.4-0.6,2.6-4,3.4c-2.3,0-4-0.6-4.3-1.1c-1.1-1.4-1.1-2.5,2.9-3.7  C97.7,94.6,99.6,95.1,101.2,96.1z"></path>	<path class="st2" d="M496.2,96.8c0,1.4,0,2.8-2.9,3.9c-4,0.5-5.1-0.9-5.4-1.6c-1.1-1.3,1.4-2.3,4-3.2  C495,95.6,494.8,96.5,496.2,96.8L496.2,96.8z"></path>	<path class="st2" d="M433.6,98.8c0.9,1.6,2,3.7-3.4,4.7c-4.6,0.1-5.4-0.7-7.4-1.5c-1.4-1.4-0.9-3.1,2-4.2  C427.7,96.9,432.8,98,433.6,98.8L433.6,98.8z"></path>	<path class="st2" d="M428.2,101.4c-2.6-0.6-0.9-1.6-1.4-2.3l1.4-0.4C428.8,99.5,431.1,100.6,428.2,101.4z"></path>	<path class="st2" d="M101.2,101.9c0.9,1,1.7,2.5-1.4,3.3c-2.9,0.3-2-0.5-4-0.7c-1.7-1,0-2.1,1.4-3  C98.9,101.3,100.9,101.4,101.2,101.9L101.2,101.9z"></path>	<path class="st2" d="M494.8,103.8c-1.1,0.9-0.3,2.1-3.4,2.9c-3.7-0.5-2.9-2-2-2.9C489.1,102.8,496.5,102.3,494.8,103.8L494.8,103.8  z"></path>	<path class="st2" d="M193.2,105.6c0,0.9,0.3,1.9-2,2.4c-0.9,0.1-2.9,0.6-4.3,0.1c-4-0.9-6-2.5-4-4  C186.6,101.9,192.6,104.7,193.2,105.6L193.2,105.6z"></path>	<path class="st2" d="M190.3,107.5c-4.6,0.4-3.1-1-5.4-1.4c0.6-0.6-1.1-1.6,1.4-2C190.6,104.7,190.6,106.4,190.3,107.5L190.3,107.5z  "></path>	<path class="st2" d="M435.6,108.1c-1.7,0.6-3.6,0.8-5.4,0.7c-3.4-1.1-2-2.2-1.4-3.4l4.9-0.3C436.2,106,435.6,107.1,435.6,108.1  L435.6,108.1z"></path>	<path class="st2" d="M104.7,107.8c1.1,1.1,1.4,2.5-2.6,3.1c-2.6-1.2-6.8-2.4-4.3-4C100.7,106.4,104.1,107.1,104.7,107.8  L104.7,107.8z"></path>	<path class="st2" d="M102.1,110.1c-3.1-0.6-2.3-1.9-1.4-2.8C103.5,107.9,102.9,109.2,102.1,110.1z"></path>	<path class="st2" d="M193.8,112.2l-1.4,0.4c-3.1-0.1-2.3-1.3-3.4-1.9l2.9-1C194.6,110.2,195.2,111.4,193.8,112.2L193.8,112.2z"></path>	<path class="st2" d="M435.6,112c0,0.8-0.3,1.6-2.6,2.1c-3.4-0.7-3.1-2.1-2-3C434.5,109.9,434.8,111.7,435.6,112L435.6,112z"></path>	<path class="st2" d="M197.2,115.1c-0.3,0.4,0.6,0.9-0.6,1.1h-2v-1.7C196.1,114.4,197.2,114.9,197.2,115.1z"></path>	<path class="st2" d="M435.1,116.1l-1.4,1.6c-2.9-0.2-2.3-1.3-1.4-1.9C433.2,115.7,434.2,115.8,435.1,116.1z"></path>	<path class="st2" d="M307.7,133.9c-1.1,0.1-2.3,0.8-3.4,0.4c-2.3-0.6-1.7-1.7-0.9-2.4l2-0.5C309.4,131.7,306.8,133.1,307.7,133.9  L307.7,133.9z"></path>	<path class="st2" d="M310.3,138.2c0.6,0.9-0.3,2.2-2.6,3c-1.4,0.2-2.9,0.3-4.3,0.2c-4.3-0.9-3.1-2.8-1.4-4  C303.7,136,310.6,137.1,310.3,138.2L310.3,138.2z"></path>	<path class="st2" d="M306.9,137.4c0.9,1.1,1.7,2.5-0.6,3.4c-1.2,0.2-2.4-0.1-3.4-0.6C303.1,139.2,301.4,137.5,306.9,137.4z"></path>	<path class="st2" d="M307.7,145.1c-2.3,0.7-1.4,2-5.7,2c-1.7-1.3-0.9-2.8,2.9-3.5C308,143.6,306.9,144.6,307.7,145.1L307.7,145.1z"></path></g><linearGradient id="SVGID_1_" gradientUnits="userSpaceOnUse" x1="79.6954" y1="866.3264" x2="374.8554" y2="866.3264" gradientTransform="matrix(0.75 3.000000e-02 -4.000000e-02 1.05 250.67 -792.96)">	<stop offset="1.000000e-02" style="stop-color:#DD8527"></stop>	<stop offset="0.3" style="stop-color:#DD8629"></stop>	<stop offset="0.44" style="stop-color:#DF8B31"></stop>	<stop offset="0.55" style="stop-color:#E1923E"></stop>	<stop offset="0.64" style="stop-color:#E49D51"></stop>	<stop offset="0.73" style="stop-color:#E7AA69"></stop>	<stop offset="0.8" style="stop-color:#ECBB87"></stop>	<stop offset="0.88" style="stop-color:#F2CFAA"></stop>	<stop offset="0.94" style="stop-color:#F8E6D3"></stop>	<stop offset="1" style="stop-color:#FFFFFF"></stop></linearGradient><path class="st3" d="M277.1,99.4c0,0,91.5,51.3,197.2,6.9l23.7,23.4C498.1,129.8,376.8,179.4,277.1,99.4z"></path><linearGradient id="SVGID_2_" gradientUnits="userSpaceOnUse" x1="-1940.1055" y1="-1151.7578" x2="-1644.9354" y2="-1151.7578" gradientTransform="matrix(-0.75 -3.000000e-02 4.000000e-02 -1.05 -1189.95 -1241.78)">	<stop offset="1.000000e-02" style="stop-color:#DD8527"></stop>	<stop offset="0.3" style="stop-color:#DD8629"></stop>	<stop offset="0.44" style="stop-color:#DF8B31"></stop>	<stop offset="0.55" style="stop-color:#E1923E"></stop>	<stop offset="0.64" style="stop-color:#E49D51"></stop>	<stop offset="0.73" style="stop-color:#E7AA69"></stop>	<stop offset="0.8" style="stop-color:#ECBB87"></stop>	<stop offset="0.88" style="stop-color:#F2CFAA"></stop>	<stop offset="0.94" style="stop-color:#F8E6D3"></stop>	<stop offset="1" style="stop-color:#FFFFFF"></stop></linearGradient><path class="st4" d="M220.9,45.8c0,0-91.4-51.4-197.2-7.2L0,15.1C0,15.1,121.3-34.3,220.9,45.8z"></path><path class="st5" d="M47,65.4h24.3v25.2c0,0,0,12.6-13.3,12.2H21.7V87.6h21.6c0,0,3.6,0,3.6-5.9L47,65.4z"></path><polygon class="st6" points="46.9,32.6 71.3,32.6 71.3,60.7 46.8,60.7 "></polygon><path class="st5" d="M166.3,73.8c0,8.2-10.8,14.8-24.2,14.8s-24.2-6.6-24.2-14.8S128.8,59,142.1,59S166.3,65.7,166.3,73.8z  M142.1,43.8c-27.2,0-49.2,13.5-49.2,30.1s22,30.1,49.2,30.1s49.2-13.5,49.2-30.1S169.3,43.8,142.1,43.8z"></path><rect x="210.3" y="44.7" class="st5" width="87.5" height="16.3"></rect><rect x="234.4" y="68" class="st5" width="25.1" height="37.6"></rect><rect x="305.3" y="46" class="st5" width="87" height="16.5"></rect><polygon class="st5" points="305.1,68.9 379.6,68.9 379.6,84.8 330,84.8 330,91.9 378.9,91.9 378.9,107.1 304.7,107.1 "></polygon><polygon class="st5" points="399.9,47.2 428.8,47.2 446.9,63.4 417.4,63.4 "></polygon><polygon class="st6" points="483.1,37.3 510.3,37.3 482.5,63.9 453.2,63.2 "></polygon><polygon class="st5" points="426.9,70.5 472.3,70.5 461.4,82.1 461.4,108.6 435.6,108.6 435.6,80.8 "></polygon><path class="st0" d="M33.7,131.2h-6.6l-1.2,6.6h7.4l-0.4,1.9h-9.7l3.5-18.2H36l-0.4,1.9h-7l-1.1,5.8h6.6L33.7,131.2z"></path><path class="st0" d="M38.6,126.7l1.1,7.4c0.2,1.5,0.4,2.5,0.4,3.2h0.1c0.3-0.7,0.6-1.6,1.4-3l4-7.6h2.5l-7.2,13.1h-2.2l-2.3-13.1 L38.6,126.7z"></path><path class="st0" d="M57.1,139c-1.3,0.7-2.8,1-4.3,1c-3.4,0-5-2.4-5-5.2c0-3.9,2.9-8.4,7.1-8.4c2.5,0,3.8,1.5,3.8,3.4 c0,3.4-3.8,4.3-8.7,4.2c-0.1,0.8,0,1.7,0.3,2.5c0.5,1.1,1.7,1.8,2.9,1.8s2.4-0.3,3.5-0.9L57.1,139z M54.6,128.2 c-2.1,0-3.7,2.1-4.3,4.1c3.5,0.1,6.3-0.4,6.3-2.5C56.6,128.8,55.8,128.2,54.6,128.2z"></path><path class="st0" d="M59.9,139.8l1.6-8.4c0.3-1.7,0.5-3.4,0.7-4.6h2c-0.1,0.9-0.2,1.8-0.3,2.8H64c0.8-1.8,2.2-3.1,4-3.1 c0.2,0,0.4,0,0.7,0l-0.4,2.2c-0.2,0-0.4-0.1-0.6-0.1c-1.9,0-3.7,2.4-4.2,5.4l-1.1,5.8H59.9z"></path><path class="st0" d="M71.9,126.7l1.3,7c0.3,1.5,0.5,2.5,0.6,3.4h0.1c0.3-0.8,0.7-1.7,1.4-3.2l3.3-7.3H81l-4.9,9.9 c-1.1,2.5-2.6,4.9-4.5,6.9c-1,1.1-2.3,1.9-3.8,2.2l-0.6-1.9c0.9-0.3,1.7-0.7,2.4-1.3c1-0.8,1.9-1.8,2.5-3c0.1-0.2,0.1-0.4,0-0.6 l-2.5-12.2h2.3V126.7z"></path><path class="st0" d="M94.5,120.6l-2.9,15c-0.3,1.4-0.4,2.8-0.5,4.1h-2l0.3-2.6h-0.1c-0.9,1.7-2.7,2.8-4.7,2.9 c-2.5,0-3.9-2.1-3.9-4.7c0-4.6,3.5-8.9,8.1-8.9c0.8,0,1.6,0.2,2.3,0.5l1.2-6.3H94.5z M90.8,128.8c-0.6-0.4-1.4-0.6-2.1-0.6 c-3.1,0-5.6,3.4-5.6,6.8c0,1.6,0.5,3.2,2.4,3.2c1.7,0,3.8-2,4.4-4.9L90.8,128.8z"></path><path class="st0" d="M103.5,139.8c0-1.1,0.1-2.3,0.3-3.4h-0.1c-1.4,2.7-3.2,3.7-5.1,3.7c-2.3,0-3.8-1.8-3.8-4.3 c-0.1-5,3.8-9.2,8.8-9.3c0.1,0,0.1,0,0.2,0c1.2,0,2.4,0.2,3.5,0.5l-1.4,6.8c-0.4,2-0.6,4-0.5,6H103.5z M104.9,128.4 c-0.5-0.2-1-0.2-1.5-0.2c-3.4,0-6.2,3.5-6.2,7.1c0,1.5,0.5,2.9,2.2,2.9s4.1-2.4,4.7-5.9L104.9,128.4z"></path><path class="st0" d="M111.7,126.7l1.3,7c0.3,1.5,0.4,2.5,0.6,3.4h0.1c0.4-0.8,0.7-1.7,1.4-3.2l3.3-7.3h2.4l-4.9,9.9 c-1.1,2.5-2.6,4.8-4.5,6.9c-1,1.1-2.3,1.9-3.8,2.2l-0.6-1.9c0.9-0.3,1.7-0.7,2.4-1.2c1-0.8,1.9-1.8,2.5-3c0.1-0.2,0.1-0.4,0-0.6 l-2.6-12.2L111.7,126.7z"></path><path class="st0" d="M117.8,143.1c1.1-2.1,1.9-4.2,2.6-6.5l2.7-0.3c-1,2.3-2.2,4.5-3.6,6.5L117.8,143.1z"></path><path class="st0" d="M140.8,131.2h-6.6l-1.2,6.6h7.4l-0.4,1.9h-9.7l3.4-18.2h9.3l-0.4,1.9h-7l-1.1,5.8h6.6L140.8,131.2z"></path><path class="st0" d="M145.6,126.7l1.1,7.4c0.2,1.5,0.4,2.5,0.4,3.2h0.1c0.3-0.7,0.6-1.6,1.4-3l4-7.6h2.4l-7.3,13.1h-2.2l-2.3-13.1 L145.6,126.7z"></path><path class="st0" d="M164.2,139c-1.3,0.7-2.8,1-4.3,1c-3.5,0-5-2.4-5-5.2c0-3.9,2.9-8.4,7.1-8.4c2.5,0,3.8,1.5,3.8,3.4 c0,3.4-3.8,4.3-8.7,4.2c-0.1,0.8,0,1.7,0.3,2.5c0.5,1.1,1.7,1.9,2.9,1.8c1.2,0,2.4-0.3,3.5-0.9L164.2,139z M161.7,128.2 c-2.1,0-3.7,2.1-4.3,4.1c3.5,0.1,6.3-0.4,6.3-2.5C163.7,128.8,162.9,128.2,161.7,128.2L161.7,128.2z"></path><path class="st0" d="M167,139.8l1.6-8.4c0.3-1.7,0.5-3.4,0.6-4.6h2c-0.1,0.9-0.2,1.8-0.4,2.8h0.1c0.8-1.8,2.2-3.1,4-3.1 c0.2,0,0.4,0,0.6,0l-0.4,2.2c-0.2,0-0.4-0.1-0.6-0.1c-1.9,0-3.7,2.4-4.2,5.4l-1.1,5.8H167z"></path><path class="st0" d="M178.9,126.7l1.3,7c0.3,1.5,0.4,2.5,0.6,3.4h0.1c0.4-0.8,0.7-1.7,1.4-3.2l3.4-7.3h2.4l-4.9,9.9 c-1.1,2.5-2.6,4.9-4.5,6.9c-1,1.1-2.3,1.9-3.8,2.2l-0.6-1.9c0.9-0.3,1.7-0.7,2.4-1.2c1-0.8,1.9-1.8,2.5-3c0.1-0.2,0.1-0.4,0-0.6 l-2.6-12.3h2.3V126.7z"></path><path class="st0" d="M209.8,128.7c0,3.2-1.1,6.4-3.3,8.8c-1.6,1.7-3.9,2.6-6.2,2.5c-4.7,0-6.9-3.5-6.9-7.4c0-3.3,1.2-6.5,3.4-8.9 c1.6-1.6,3.8-2.4,6.1-2.4C207.8,121.3,209.8,124.9,209.8,128.7z M198.5,125c-1.8,2.1-2.8,4.8-2.8,7.5c0,3,1.3,5.7,4.9,5.7 c1.6,0,3.1-0.7,4.1-1.8c1.8-2.1,2.7-4.8,2.7-7.5c0-2.6-0.8-5.7-4.8-5.7C201.1,123.2,199.6,123.9,198.5,125z"></path><path class="st0" d="M220.1,139.2c-1.2,0.6-2.5,0.8-3.8,0.8c-2.6,0.2-4.8-1.8-5-4.3c0-0.2,0-0.4,0-0.7c0-4.4,3.3-8.6,8-8.6 c0.9,0,1.9,0.2,2.7,0.6l-0.7,1.8c-0.7-0.3-1.4-0.5-2.2-0.5c-3.4,0-5.5,3.4-5.5,6.4c0,2.1,1.1,3.5,3.2,3.5c1,0,2.1-0.3,3-0.7 L220.1,139.2z"></path><path class="st0" d="M231.3,139.2c-1.2,0.6-2.5,0.8-3.8,0.8c-2.6,0.2-4.8-1.8-5-4.4c0-0.2,0-0.4,0-0.6c0-4.4,3.3-8.6,8-8.6 c0.9,0,1.9,0.2,2.7,0.6l-0.6,1.8c-0.7-0.3-1.5-0.5-2.2-0.5c-3.4,0-5.5,3.4-5.5,6.4c0,2.1,1.1,3.5,3.2,3.5c1,0,2.1-0.3,3-0.7 L231.3,139.2z"></path><path class="st0" d="M241.9,139.8c0-0.8,0.1-2,0.3-3.4h-0.1c-1.4,2.7-3.2,3.7-5.1,3.7c-2.3,0-3.7-1.8-3.7-4.3 c-0.1-5,3.8-9.2,8.8-9.3c0.1,0,0.1,0,0.2,0c1.2,0,2.4,0.2,3.5,0.5l-1.3,6.8c-0.4,2-0.6,4-0.5,6H241.9z M243.4,128.4 c-0.5-0.2-1-0.2-1.5-0.2c-3.4,0-6.2,3.5-6.2,7.1c0,1.5,0.5,2.9,2.2,2.9c1.9,0,4.1-2.4,4.7-5.9L243.4,128.4z"></path><path class="st0" d="M247.5,137.5c0.8,0.5,1.8,0.8,2.8,0.8c1.2,0.1,2.3-0.8,2.5-2v-0.1c0-1-0.5-1.6-1.8-2.4 c-1.4-0.6-2.3-1.9-2.4-3.3c0-2.3,2-4,4.7-4c0.9,0,1.9,0.2,2.7,0.6l-0.6,1.7c-0.7-0.4-1.5-0.6-2.2-0.6c-1.1-0.1-2.2,0.7-2.3,1.8 c0,0.1,0,0.1,0,0.2c0,0.9,0.6,1.5,1.8,2.2c1.4,0.6,2.3,1.9,2.4,3.4c0,2.8-2.2,4.3-5,4.3c-1.1,0-2.3-0.3-3.3-0.9L247.5,137.5z"></path><path class="st0" d="M257.4,139.8l2.5-13.1h2.2l-2.5,13.1H257.4z M260.3,123.1c0-0.8,0.6-1.5,1.5-1.5c0.7,0,1.3,0.5,1.4,1.3v0.1 c0,0.8-0.7,1.5-1.5,1.5c0,0,0,0-0.1,0C260.9,124.5,260.3,123.9,260.3,123.1L260.3,123.1L260.3,123.1z"></path><path class="st0" d="M276.1,131.8c0,4-2.9,8.2-7.2,8.2c-3.3,0-5.1-2.4-5.1-5.4c0-4.3,3-8.3,7.2-8.3 C274.5,126.4,276.1,129.1,276.1,131.8z M266.1,134.6c0,2.1,1.2,3.7,3.1,3.7c2.6,0,4.6-3.4,4.6-6.4c0-1.5-0.7-3.6-3-3.6 C267.9,128.2,266.1,131.6,266.1,134.6L266.1,134.6z"></path><path class="st0" d="M277.7,139.8l1.7-9.2c0.3-1.5,0.5-2.7,0.6-3.8h2l-0.3,2.6l0,0c1-1.7,2.8-2.8,4.8-2.9c1.6,0,3.3,0.9,3.3,3.6 c0,0.7-0.1,1.4-0.2,2.1l-1.5,7.6H286l1.4-7.6c0.1-0.6,0.2-1.1,0.2-1.7c0-1.3-0.5-2.3-2-2.3s-3.9,1.9-4.5,5.1l-1.2,6.3L277.7,139.8z"></path><path class="st0" d="M221.2,20.9l-3.1,6.1h-2.5l10-19.4h2.8l2.7,19.4h-2.4l-0.8-6.1H221.2z M227.7,19l-0.8-5.6 c-0.1-1-0.2-2.5-0.3-3.6h-0.1c-0.5,1.2-1,2.4-1.6,3.5l-2.9,5.6h5.7V19z"></path><path class="st0" d="M232.9,27.1l1.9-9.9c0.3-1.5,0.5-2.9,0.7-4.1h2.2l-0.4,2.7h0.1c1.1-1.8,3.1-3,5.2-3c1.6,0,3.5,0.9,3.5,3.8 c0,0.8-0.1,1.5-0.3,2.2l-1.6,8.1h-2.4l1.5-8.1c0.1-0.6,0.2-1.2,0.2-1.8c0-1.4-0.5-2.4-2.2-2.4s-4.1,2-4.7,5.5l-1.3,6.8L232.9,27.1z"></path><path class="st0" d="M263.3,18h-7l-1.3,7.1h8l-0.4,2h-10.3L256,7.7h9.9l-0.4,2H258l-1.2,6.3h7L263.3,18z"></path><path class="st0" d="M268.4,13.1l1.4,3c0.4,0.9,0.7,1.6,0.9,2.2h0.1c0.5-0.8,0.9-1.2,1.5-2.1l2.6-3.2h2.8l-5.9,6.8l3.3,7.1h-2.6 l-1.4-3.1c-0.4-0.8-0.7-1.7-1-2.5H270c-0.4,0.7-0.9,1.5-1.4,2.2l-2.8,3.5H263l6.1-7.2l-3.2-6.8L268.4,13.1z"></path><path class="st0" d="M285.9,26.5c-1.3,0.6-2.6,0.9-4,0.9c-3.6,0-5.4-2.4-5.4-5.4c0-4.8,3.5-9.2,8.5-9.2c1,0,2,0.2,2.9,0.6l-0.7,1.9 c-0.7-0.3-1.5-0.5-2.4-0.5c-3.6,0-5.9,3.6-5.9,6.9c0,2.3,1.2,3.7,3.5,3.7c1.1,0,2.2-0.3,3.2-0.8L285.9,26.5z"></path><path class="st0" d="M287.8,27.1l3.9-20.4h2.4l-3.9,20.4H287.8z"></path><path class="st0" d="M307.3,13.1l-1.9,9.9c-0.3,1.5-0.5,2.9-0.6,4h-2.1l0.4-2.6H303c-1.1,1.7-2.9,2.8-4.9,2.9c-1.8,0-3.7-0.9-3.7-4 c0-0.8,0.1-1.6,0.3-2.4l1.5-7.9h2.4l-1.5,7.8c-0.1,0.7-0.2,1.3-0.2,2c0,1.4,0.6,2.4,2.2,2.4s4-2,4.5-5.1L305,13L307.3,13.1z"></path><path class="st0" d="M308.2,24.7c0.9,0.5,1.9,0.8,3,0.9c1.3,0.1,2.5-0.8,2.6-2.1v-0.1c0-1.1-0.5-1.8-2-2.6c-1.4-0.6-2.4-2-2.5-3.5 c0-2.4,2.1-4.3,5.1-4.3c1,0,2,0.2,2.9,0.7l-0.7,1.8c-0.7-0.4-1.6-0.6-2.4-0.6c-1.2-0.1-2.3,0.7-2.5,2V17c0,1,0.7,1.6,1.9,2.3 c1.5,0.9,2.6,2.1,2.6,3.7c0,2.9-2.4,4.6-5.3,4.6c-1.2,0-2.4-0.3-3.5-1L308.2,24.7z"></path><path class="st0" d="M318.1,27.1l2.6-13.9h2.4l-2.6,13.9H318.1z M322.6,10.6c-0.8,0-1.4-0.7-1.4-1.5V9c0-0.9,0.7-1.7,1.6-1.7 c0.8,0,1.5,0.6,1.5,1.4v0.1C324.3,9.8,323.6,10.6,322.6,10.6C322.7,10.6,322.6,10.6,322.6,10.6L322.6,10.6z"></path><path class="st0" d="M327.1,13.1l1.2,7.9c0.2,1.6,0.4,2.7,0.4,3.4h0.1c0.3-0.8,0.7-1.7,1.5-3.3l4.3-8.1h2.6l-7.8,13.9h-2.3L324.7,13 L327.1,13.1z"></path><path class="st0" d="M346,26.3c-1.4,0.7-3,1.1-4.6,1.1c-3.7,0-5.3-2.5-5.3-5.6c0-4.2,3.1-9,7.6-9c2.6,0,4.1,1.6,4.1,3.6 c0,3.7-4.1,4.6-9.3,4.5c-0.1,0.9,0,1.8,0.3,2.7c0.5,1.2,1.8,2,3.1,1.9c1.3,0,2.6-0.3,3.8-0.9L346,26.3z M345.5,16.5 c0-1.1-0.9-1.8-2.1-1.8c-2.3,0-4,2.2-4.5,4.4C342.6,19.2,345.5,18.6,345.5,16.5L345.5,16.5z"></path><path class="st0" d="M356.6,7.7h9.8l-0.4,2h-7.4l-1.3,6.5h6.9l-0.4,2h-6.9l-1.6,8.8h-2.4L356.6,7.7z"></path><path class="st0" d="M373.7,27.1c0-0.8,0.1-2.2,0.3-3.6l0,0c-1.5,2.9-3.5,3.9-5.4,3.9c-2.5,0-4-2-4-4.6c0-4.8,3.6-10,9.6-10 c1.3,0,2.5,0.2,3.7,0.5l-1.4,7.3c-0.4,2.1-0.6,4.3-0.6,6.4h-2.2V27.1z M375.2,14.9c-0.5-0.2-1.1-0.2-1.6-0.2c-3.6,0-6.6,3.8-6.6,7.6 c0,1.6,0.5,3.1,2.4,3.1c2,0,4.4-2.6,5-6.3L375.2,14.9z"></path><path class="st0" d="M378.9,24.7c0.9,0.5,1.9,0.8,3,0.9c1.3,0.1,2.5-0.8,2.6-2.1v-0.1c0-1.1-0.5-1.8-2-2.6c-1.4-0.6-2.4-2-2.5-3.5 c0-2.4,2.1-4.3,5.1-4.3c1,0,2,0.2,2.9,0.7l-0.7,1.8c-0.7-0.4-1.5-0.6-2.4-0.6c-1.2-0.1-2.4,0.8-2.5,2V17c0,1,0.7,1.6,1.9,2.3 c1.6,0.9,2.6,2.1,2.6,3.7c0,2.9-2.4,4.6-5.3,4.6c-1.2,0-2.4-0.3-3.5-1L378.9,24.7z"></path><path class="st0" d="M388.8,27.1l3.9-20.4h2.4l-1.7,9h0.1c1.1-1.7,3-2.8,5-2.8c1.6,0,3.5,0.9,3.5,3.7c0,0.8-0.1,1.6-0.2,2.3 l-1.6,8.2h-2.5l1.6-8.1c0.1-0.6,0.2-1.3,0.2-1.9c0.2-1.1-0.6-2.1-1.7-2.3c-0.2,0-0.3,0-0.5,0c-1.8,0-4.2,2.2-4.8,5.3l-1.3,7 L388.8,27.1z"></path><path class="st0" d="M403.4,27.1l2.6-13.9h2.4l-2.6,13.9H403.4z M407.9,10.6c-0.8,0-1.4-0.7-1.4-1.5V9c0-0.9,0.7-1.7,1.6-1.7 c0.8,0,1.5,0.6,1.5,1.4v0.1c0,0.9-0.7,1.7-1.6,1.7C408,10.6,407.9,10.6,407.9,10.6L407.9,10.6z"></path><path class="st0" d="M414.9,27.4c-3.5,0-5.4-2.6-5.4-5.7c0-4.6,3.2-8.8,7.7-8.8c3.8,0,5.5,2.8,5.5,5.8 C422.6,22.9,419.6,27.4,414.9,27.4L414.9,27.4z M415.2,25.5c2.8,0,4.9-3.6,4.9-6.9c0-1.6-0.8-3.9-3.2-3.9c-3,0-5,3.7-5,6.9 C411.9,23.9,413.2,25.5,415.2,25.5L415.2,25.5z"></path><path class="st0" d="M423.6,27.1l1.8-9.9c0.3-1.5,0.5-2.9,0.7-4.1h2.2l-0.4,2.7l0,0c1.1-1.8,3.1-3,5.2-3c1.6,0,3.5,0.9,3.5,3.8 c0,0.8-0.1,1.5-0.3,2.2l-1.6,8.1h-2.4l1.5-8.1c0.1-0.6,0.2-1.2,0.2-1.8c0-1.4-0.5-2.4-2.2-2.4s-4.1,2-4.8,5.5l-1.3,6.8L423.6,27.1z"></path><path class="st0" d="M448.9,7.7l-1.6,8.2h8.9l1.5-8.2h2.4l-3.6,19.4h-2.4l1.7-9.1H447l-1.7,9.1h-2.4l3.7-19.4 C446.6,7.7,448.9,7.7,448.9,7.7z"></path><path class="st0" d="M465.7,27.4c-3.5,0-5.4-2.6-5.4-5.7c0-4.6,3.2-8.8,7.7-8.8c3.8,0,5.5,2.8,5.5,5.8 C473.5,22.9,470.4,27.4,465.7,27.4L465.7,27.4z M466,25.5c2.8,0,5-3.6,5-6.9c0-1.6-0.8-3.9-3.2-3.9c-3,0-5,3.7-5,6.9 C462.7,23.9,464,25.5,466,25.5L466,25.5z"></path><path class="st0" d="M488,13.1l-1.9,9.9c-0.3,1.5-0.5,2.9-0.6,4h-2.2l0.4-2.6h-0.1c-1.1,1.7-2.9,2.8-4.9,2.9c-1.8,0-3.7-0.9-3.7-4 c0-0.8,0.1-1.6,0.3-2.4l1.5-7.9h2.4l-1.5,7.8c-0.1,0.7-0.2,1.3-0.2,2c0,1.4,0.6,2.4,2.2,2.4s4-2,4.5-5.1l1.4-7.1L488,13.1z"></path><path class="st0" d="M489,24.7c0.9,0.5,1.9,0.8,3,0.9c1.3,0.1,2.5-0.9,2.6-2.2v-0.1c0-1.1-0.5-1.8-2-2.6c-1.4-0.6-2.4-2-2.5-3.5 c0-2.4,2.1-4.3,5.1-4.3c1,0,2,0.2,2.9,0.7l-0.7,1.8c-0.7-0.4-1.5-0.6-2.4-0.6c-1.2-0.1-2.4,0.8-2.5,2v0.1c0,1,0.7,1.6,1.9,2.3 c1.6,0.9,2.6,2.1,2.6,3.7c0,2.9-2.4,4.6-5.3,4.6c-1.2,0-2.4-0.3-3.5-1L489,24.7z"></path><path class="st0" d="M508.9,26.3c-1.4,0.7-3,1.1-4.6,1.1c-3.7,0-5.3-2.5-5.3-5.6c0-4.2,3.1-9,7.6-9c2.7,0,4.1,1.6,4.1,3.6 c0,3.7-4.1,4.6-9.3,4.5c-0.1,0.9,0,1.8,0.3,2.7c0.5,1.2,1.8,2,3.1,1.9c1.3,0,2.6-0.3,3.8-0.9L508.9,26.3z M508.4,16.5 c0-1.1-0.9-1.8-2.1-1.8c-2.3,0-4,2.2-4.5,4.4C505.4,19.2,508.4,18.6,508.4,16.5L508.4,16.5z"></path></svg>