<svg xmlns="http://www.w3.org/2000/svg" xmlns:xlink="http://www.w3.org/1999/xlink" id="Layer_1" x="0px" y="0px" viewBox="0 0 224 138" style="enable-background:new 0 0 224 138;" xml:space="preserve"><style type="text/css">	.st0{fill:#231F20;}</style><g>	<g>		<polygon class="st0" points="62.25,122.46 55.4,111.96 53.6,111.96 53.6,125.53 55.4,125.53 55.4,115.07 62.23,125.53    64.03,125.53 64.03,111.96 62.25,111.96   "></polygon>		<rect x="78.8" y="111.96" class="st0" width="1.79" height="13.57"></rect>		<polygon class="st0" points="97.11,111.96 95.31,111.96 95.31,125.53 103.54,125.53 103.54,124.07 97.11,124.07   "></polygon>		<rect x="117.17" y="111.96" class="st0" width="1.79" height="13.57"></rect>		<polygon class="st0" points="140.43,123.03 135.99,111.96 133.68,111.96 133.68,125.53 135.47,125.53 135.47,120.25    135.29,114.57 139.74,125.53 141.11,125.53 145.57,114.54 145.4,120.25 145.4,125.53 147.19,125.53 147.19,111.96 144.87,111.96      "></polygon>		<path class="st0" d="M167.4,111.96h-1.57l-5.18,13.57h1.85l1.28-3.55h5.69l1.3,3.55h1.84L167.4,111.96z M164.32,120.52l2.3-6.35   l2.31,6.35H164.32z"></path>	</g>	<path class="st0" d="M174.59,57.91c-1.17,1.21-1.82,2.81-1.82,4.49c0,0.09,0,0.18,0.01,0.28l0.02,0.49l0.34-0.35  c0.53-0.54,1.23-0.83,1.98-0.83c1.52,0,2.76,1.24,2.76,2.76V78.7h-15.92V47.17l-10.73,10.74c-1.17,1.21-1.82,2.81-1.82,4.49  c0,0.09,0,0.18,0.01,0.28l0.02,0.49l0.34-0.35c0.53-0.54,1.23-0.83,1.98-0.83c1.52,0,2.76,1.24,2.76,2.76V78.7h-15.92V12.09  l-10.73,10.74c-1.17,1.21-1.82,2.81-1.82,4.49c0,0.09,0,0.18,0.01,0.28l0.02,0.49l0.34-0.35c0.53-0.54,1.23-0.83,1.98-0.83  c1.52,0,2.76,1.24,2.76,2.76V78.7h-15.92V47.17l-10.73,10.74c-1.17,1.21-1.82,2.81-1.82,4.49c0,0.09,0,0.18,0.01,0.28l0.02,0.49  l0.34-0.35c0.53-0.54,1.23-0.83,1.98-0.83c1.52,0,2.76,1.24,2.76,2.76V78.7H91.84V46.61l-0.41,1c-1.36,3.35-3.83,6.22-6.94,8.09  c-0.74,0.44-1.51,0.83-2.31,1.16c-0.94,0.38-1.93,0.69-2.95,0.89c-0.15,0.03-0.29,0.06-0.44,0.08c-3.99,0.79-7.69,2.67-10.69,5.45  c-1.95,1.81-3.54,3.92-4.73,6.28c-0.09,0.17-0.17,0.34-0.25,0.51c-0.01,0.02-0.02,0.05-0.03,0.05c-0.08,0.16-0.15,0.32-0.22,0.48  c-0.02,0.03-0.03,0.07-0.04,0.1c-0.07,0.16-0.14,0.32-0.2,0.49c-0.07,0.17-0.13,0.34-0.2,0.5c-0.02,0.04-0.03,0.07-0.04,0.1  c-0.06,0.16-0.12,0.33-0.18,0.49c-0.06,0.17-0.12,0.34-0.17,0.51c-0.03,0.1-0.06,0.2-0.09,0.29c-0.05,0.17-0.1,0.33-0.14,0.49  c-0.03,0.12-0.07,0.24-0.1,0.36c-0.09,0.32-0.17,0.66-0.24,1.02c-0.02,0.11-0.05,0.21-0.06,0.32c-0.05,0.23-0.09,0.47-0.13,0.7  l-0.04,0.28c-0.01,0.06-0.02,0.13-0.03,0.19c-0.01,0.1-0.03,0.19-0.04,0.31l0,0.03c-0.01,0.09-0.02,0.18-0.03,0.28l-0.03,0.31  c-0.01,0.1-0.02,0.21-0.03,0.31c-0.01,0.1-0.02,0.21-0.02,0.31l-0.02,0.31c-0.01,0.1-0.01,0.2-0.02,0.31c0,0.04,0,0.07,0,0.11  h-14.4V29.66c0-1.52,1.24-2.76,2.76-2.76c0.75,0,1.45,0.3,1.98,0.83l0.34,0.35l0.02-0.49c0-0.09,0.01-0.18,0.01-0.28  c0-1.69-0.65-3.28-1.82-4.49L39.18,12.09v74.06h21.84v0.83c0,4.49-1.63,8.81-4.6,12.17l-0.59,0.67l0.83-0.33  c3.61-1.45,6.64-3.95,8.77-7.21c0.16-0.24,0.3-0.47,0.43-0.7l0.05-0.09c0.05-0.08,0.09-0.16,0.13-0.23  c0.06-0.11,0.12-0.22,0.18-0.33c0.04-0.07,0.08-0.15,0.12-0.22l0.06-0.11c0.06-0.11,0.11-0.23,0.17-0.34  c0.1-0.21,0.21-0.43,0.32-0.68c0.05-0.12,0.1-0.23,0.15-0.34c0.05-0.12,0.1-0.24,0.14-0.35c0.04-0.1,0.08-0.2,0.12-0.31l0.02-0.07  c0.03-0.09,0.06-0.17,0.09-0.26l0.03-0.08c0.04-0.12,0.08-0.24,0.12-0.35c0.04-0.12,0.08-0.24,0.11-0.36  c0.07-0.23,0.14-0.47,0.2-0.71l0.08-0.34c0-0.01,0.01-0.03,0.01-0.05c0.02-0.07,0.03-0.14,0.05-0.21h117.31V47.17L174.59,57.91z   M84.39,64.86V78.7h-15.9c0.02-0.29,0.04-0.56,0.07-0.82c0.82-7.42,7.08-13.01,14.56-13.01H84.39z"></path>	<path class="st0" d="M100.99,92.94c-2.59,0-4.69,2.1-4.69,4.69c0,2.59,2.1,4.69,4.69,4.69c2.59,0,4.69-2.1,4.69-4.69  C105.68,95.05,103.58,92.94,100.99,92.94z"></path>	<path class="st0" d="M114.26,92.94c-2.59,0-4.69,2.1-4.69,4.69c0,2.59,2.1,4.69,4.69,4.69c2.59,0,4.69-2.1,4.69-4.69  C118.96,95.05,116.85,92.94,114.26,92.94z"></path>	<path class="st0" d="M146.44,92.94c-2.59,0-4.69,2.1-4.69,4.69c0,2.59,2.1,4.69,4.69,4.69s4.69-2.1,4.69-4.69  C151.13,95.05,149.03,92.94,146.44,92.94z"></path>	<path class="st0" d="M159.72,92.94c-2.59,0-4.69,2.1-4.69,4.69c0,2.59,2.1,4.69,4.69,4.69s4.69-2.1,4.69-4.69  C164.41,95.05,162.3,92.94,159.72,92.94z"></path>	<path class="st0" d="M175.72,34.18c-2.59,0-4.69,2.1-4.69,4.69s2.1,4.69,4.69,4.69s4.69-2.1,4.69-4.69S178.3,34.18,175.72,34.18z"></path></g></svg>